<svg xmlns="http://www.w3.org/2000/svg" viewBox="0 0 128 128" fill="none">
  <defs>
    <linearGradient id="bg" x1="20" y1="12" x2="108" y2="116" gradientUnits="userSpaceOnUse">
      <stop offset="0" stop-color="#1b2850" />
      <stop offset="1" stop-color="#09101f" />
    </linearGradient>
    <linearGradient id="paint" x1="42" y1="42" x2="90" y2="90" gradientUnits="userSpaceOnUse">
      <stop offset="0" stop-color="#f472b6" />
      <stop offset="1" stop-color="#8b5cf6" />
    </linearGradient>
    <linearGradient id="robot" x1="74" y1="28" x2="103" y2="57" gradientUnits="userSpaceOnUse">
      <stop offset="0" stop-color="#7dd3fc" />
      <stop offset="1" stop-color="#38bdf8" />
    </linearGradient>
  </defs>

  <rect x="8" y="8" width="112" height="112" rx="28" fill="url(#bg)" />
  <rect x="8" y="8" width="112" height="112" rx="28" stroke="#9bb8ef" stroke-opacity=".18" stroke-width="2" />

  <path d="M38 28H90" stroke="#27406f" stroke-width="4" stroke-linecap="round" />
  <path d="M38 52H90" stroke="#27406f" stroke-width="4" stroke-linecap="round" />
  <path d="M38 76H90" stroke="#27406f" stroke-width="4" stroke-linecap="round" />
  <path d="M38 100H90" stroke="#27406f" stroke-width="4" stroke-linecap="round" />
  <path d="M38 28V100" stroke="#27406f" stroke-width="4" stroke-linecap="round" />
  <path d="M62 28V100" stroke="#27406f" stroke-width="4" stroke-linecap="round" />
  <path d="M86 28V100" stroke="#27406f" stroke-width="4" stroke-linecap="round" />

  <rect x="40" y="54" width="44" height="44" rx="12" fill="url(#paint)" />
  <path d="M84 54V98" stroke="#fdf2f8" stroke-opacity=".45" stroke-width="2.5" />
  <path d="M40 54H84" stroke="#fdf2f8" stroke-opacity=".25" stroke-width="2.5" />

  <g transform="translate(70 18)">
    <rect x="0" y="10" width="36" height="32" rx="12" fill="url(#robot)" />
    <path d="M18 0V10" stroke="#7dd3fc" stroke-width="4" stroke-linecap="round" />
    <circle cx="12" cy="26" r="4" fill="#09101f" />
    <circle cx="24" cy="26" r="4" fill="#09101f" />
    <path d="M12 35C14 37 16 38 18 38C20 38 22 37 24 35" stroke="#09101f" stroke-width="3" stroke-linecap="round" />
  </g>
</svg>
